<svg xmlns="http://www.w3.org/2000/svg" width="170" height="31.086" viewBox="0 0 170 31.086">
  <g>
    <rect width="31.285" height="31.086" x="0" y="0" fill="rgb(1,113,217)" rx="0" ry="0"/>
    <path fill="rgb(255,255,255)" fill-rule="evenodd" d="M15.24324036 9.32961655L9.55321503 21.48284149c-.10476685.23421478.03928375.46843338.3142929.47493744h1.99707032c.36668396 0 .56311035-.22120285.65478515-.43590164l.6547699-1.44433212h4.943573l.65478516 1.42481613c.16369628.33831024.30773925.44891357.63513183.44891357h2.01670838c.26846313 0 .41906738-.2342186.30775451-.46843338l-5.6900177-12.15322494c-.05238342-.11060334-.1833496-.20168686-.30775452-.20168686h-.18333435c-.1244049 0-.25537109.09108352-.30773925.20168686zm.3993988 5.30890655l1.3815918 2.97975159h-2.76316834l1.36193848-2.97975159h.01963806z"/>
    <rect width="31.285" height="31.086" x="34.677" y="0" fill="rgb(1,113,217)" rx="0" ry="0"/>
    <path fill="rgb(255,255,255)" fill-rule="evenodd" d="M45.10110474 9.21901703c-.18988037 0-.34703064.15614319-.34703064.34481811v11.9710579c0 .18217086.14405822.32530212.32739257.32530212h4.43284607c3.50305176 0 6.37753296-2.83662033 6.37753296-6.33685684 0-3.46770096-2.86791992-6.3043213-6.37753296-6.3043213h-4.413208zm7.76567077 6.07661438c.11785889 2.16650009-1.40777588 3.89709854-3.53579712 3.89709854h-1.74171447v-7.31275558h1.57147216c1.9446869 0 3.60127259 1.48337173 3.70603943 3.41565704z"/>
    <rect width="31.285" height="31.086" x="69.361" y="0" fill="rgb(1,113,217)" rx="0" ry="0"/>
    <path fill="rgb(255,255,255)" fill-rule="evenodd" d="M78.91383892 9.6028703c-.11131225-.23421635.03928668-.4684327.30774564-.4684327h2.41613065c.14405115 0 .27500674.11060217.30774564.2016863l2.99888302 6.59058781h.11131226l2.99888302-6.5905878c.03928668-.09108414.16369449-.2016863.30774564-.2016863h2.41613065c.27500674 0 .41905789.23421634.30774564.46843269L85.3830451 21.7560964c-.05238223.11060216-.16369449.2016863-.30774564.2016863h-.18333782c-.14405115 0-.2553634-.09108414-.30774564-.2016863L78.91383892 9.6028703z"/>
    <rect width="31.285" height="31.086" x="104.038" y="0" fill="rgb(1,113,217)" rx="0" ry="0"/>
    <path fill="rgb(255,255,255)" fill-rule="evenodd" d="M126.01202393 17.22140503c1.18515014-4.8925171-3.05781556-9.15395355-7.98829651-7.98287201-2.30482483.54650497-4.12510681 2.36818695-4.67510987 4.6583023-1.17860412 4.90553284 3.01852417 9.09540177 7.94900513 7.95685197 2.31791687-.53349305 4.15783691-2.33565903 4.71440125-4.63228226zm-2.80900574-2.52432633c.59585571 2.4527626-1.44050598 4.6778183-3.88937378 4.44360352-1.65003967-.16265106-3.00543213-1.45734787-3.22805786-3.09035492-.32739258-2.4722824 1.9185028-4.59324264 4.41319275-4.0207138 1.32920837.30578231 2.38339233 1.34674453 2.70423889 2.6674652z"/>
    <rect width="31.285" height="31.086" x="138.715" y="0" fill="rgb(1,113,217)" rx="0" ry="0"/>
    <path fill="rgb(255,255,255)" fill-rule="evenodd" d="M152.66802758 15.3802069l-3.67330432-5.65372242c-.14405115-.23421635 0-.50746875.30774564-.50746875h2.6518507c.12440782 0 .23572007.09108413.2881023.16265024l2.08874168 3.357101h.01964334l2.12802835-3.357101c.03928667-.0715661.16369448-.16265024.2881023-.16265024h2.6518507c.30774564 0 .47144013.2732524.30774564.50746875l-3.68639987 5.65372242 3.81735546 5.9790229c.1636945.25373438 0 .50746876-.2881023.50746876h-2.5274429c-.11131225 0-.2553634-.0715661-.30774563-.16265024l-2.38339175-3.64987144h-.03928668l-2.32446173 3.64987144c-.05238224.0715661-.1636945.16265024-.30774564.16265024h-2.5274429c-.30774564 0-.47144013-.2732524-.30774564-.50746876l3.82390325-5.9790229z"/>
  </g>
</svg>
