<?xml version="1.0" encoding="UTF-8"?>
<svg width="196px" height="51px" viewBox="0 0 196 51" version="1.1" xmlns="http://www.w3.org/2000/svg" xmlns:xlink="http://www.w3.org/1999/xlink">
    <!-- Generator: sketchtool 54.1 (76490) - https://sketchapp.com -->
    <title>931C550D-872D-4D67-AF3F-F28BAC3A1082</title>
    <desc>Created with sketchtool.</desc>
    <g id="www_cocoders" stroke="none" stroke-width="1" fill="none" fill-rule="evenodd">
        <g id="cocoders_www2_sg" transform="translate(-368.000000, -5575.000000)" fill-rule="nonzero">
            <g id="foot" transform="translate(0.000000, 5560.000000)">
                <g id="Group-3" transform="translate(368.000000, 15.000000)">
                    <g id="cocoders_logo">
                        <g id="Group">
                            <g transform="translate(98.500000, 25.500000) scale(-1, 1) rotate(-180.000000) translate(-98.500000, -25.500000) ">
                                <polygon id="Path" fill="#F05422" points="0 0 56.473593 0 56.473593 50.764133 0 50.764133"></polygon>
                                <g id="Clipped" transform="translate(3.837662, 11.475000)" fill="#FFFFFF">
                                    <g id="Group" transform="translate(1.181320, 0.764694)">
                                        <g id="Group-2" transform="translate(55.503256, 0.231194)">
                                            <path d="M19.0721348,1.69995749 C17.9254645,1.0920527 15.3828478,0.281512967 12.1422579,0.281512967 C4.86339437,0.281512967 0.126812965,5.29672754 0.126812965,12.79456 C0.126812965,20.3427112 5.21238097,25.8138544 13.0895072,25.8138544 C15.6819792,25.8138544 17.9753197,25.1552909 19.1718452,24.5473861 L18.1747406,21.1025922 C17.1277808,21.710497 15.4825582,22.2677431 13.0895072,22.2677431 C7.55557676,22.2677431 4.56426299,18.113727 4.56426299,12.9971949 C4.56426299,7.32341685 8.15383951,3.82796427 12.9399415,3.82796427 C15.432703,3.82796427 17.0779256,4.48618781 18.3243063,5.04377386 L19.0721348,1.69995749 Z" id="Path"></path>
                                            <path d="M26.8984016,12.9971949 C26.8984016,7.62736926 29.9395705,3.57467069 34.2271202,3.57467069 C38.4149594,3.57467069 41.5561734,7.57637053 41.5561734,13.0985123 C41.5561734,17.2525284 39.512109,22.5210365 34.3271652,22.5210365 C29.1418869,22.5210365 26.8984016,17.6577982 26.8984016,12.9971949 M46.0431448,13.2504891 C46.0431448,4.18257556 39.8610963,0.231194224 34.0280343,0.231194224 C27.4966645,0.231194224 22.4612863,5.0940928 22.4612863,12.8452193 C22.4612863,21.0519343 27.7459407,25.8645142 34.4268761,25.8645142 C41.3564186,25.8645142 46.0431448,20.7479819 46.0431448,13.2504891" id="Shape"></path>
                                            <path d="M68.0272913,15.3274964 C68.0272913,15.8847424 67.9774361,16.6446234 67.8278704,17.2018695 C67.1797524,20.0387585 64.7863668,22.3690602 61.4959217,22.3690602 C56.9590959,22.3690602 54.2669135,18.3163616 54.2669135,12.8958772 C54.2669135,7.93132149 56.6599645,3.82796418 61.3965458,3.82796418 C64.3380044,3.82796418 67.0301867,5.80331475 67.8278704,9.14679107 C67.9774361,9.75469585 68.0272913,10.3626006 68.0272913,11.0718229 L68.0272913,15.3274964 Z M72.4145504,36.7564808 L72.4145504,7.12044193 C72.4145504,4.94211641 72.4644056,2.45983849 72.6139713,0.788100296 L68.6754084,0.788100296 L68.4759874,5.04377387 L68.376277,5.04377387 C67.0301859,2.30786229 64.0887275,0.231194224 60.14983,0.231194224 C54.3167684,0.231194224 49.829798,5.2464088 49.829798,12.6932426 C49.7799428,20.8492986 54.7654655,25.8645132 60.6483822,25.8645132 C64.3380036,25.8645132 66.830765,24.0914575 67.9275799,22.1157669 L68.0272904,22.1157669 L68.0272904,36.7564808 L72.4145504,36.7564808 Z" id="Shape"></path>
                                            <path d="M94.9993085,15.4288147 C95.0488291,18.2657037 93.8523036,22.6733533 88.916636,22.6733533 C84.4798552,22.6733533 82.5351666,18.5189973 82.18618,15.4288147 L94.9993085,15.4288147 Z M82.1366592,12.2373137 C82.2360351,6.20892462 86.0253669,3.72664674 90.4122924,3.72664674 C93.5535063,3.72664674 95.4480049,4.2838928 97.0932275,4.99311504 L97.8410559,1.80161492 C96.2955438,1.09205268 93.6532168,0.281512967 89.8143642,0.281512967 C82.3856007,0.281512967 77.9484855,5.24640871 77.9484855,12.6425836 C77.9484855,20.0387585 82.2360351,25.8645127 89.2656221,25.8645127 C97.1430827,25.8645127 99.2370022,18.8229489 99.2370022,14.3143218 C99.2370022,13.4024646 99.1372918,12.6932423 99.0874366,12.2373137 L82.1366592,12.2373137 Z" id="Shape"></path>
                                            <path d="M104.669212,17.6577979 C104.669212,20.5453456 104.619692,23.0276234 104.469791,25.3076063 L108.308979,25.3076063 L108.45821,20.4946868 L108.657965,20.4946868 C109.754446,23.7875044 112.397108,25.8645124 115.338566,25.8645124 C115.837118,25.8645124 116.186105,25.8138537 116.584947,25.7125362 L116.584947,21.5078615 C116.13625,21.6091789 115.687553,21.6598377 115.08929,21.6598377 C111.997931,21.6598377 109.804636,19.2788773 109.206373,15.935401 C109.106662,15.3274962 109.006952,14.618274 109.006952,13.858393 L109.006952,0.788100283 L104.669212,0.788100283 L104.669212,17.6577979 Z" id="Path"></path>
                                            <path d="M120.375288,5.34738618 C121.671524,4.48618773 123.965199,3.57433055 126.158495,3.57433055 C129.349229,3.57433055 130.845221,5.19540998 130.845221,7.22175927 C130.845221,9.34942601 129.598505,10.5145769 126.35825,11.7303864 C122.020511,13.3011471 119.976781,15.7324263 119.976781,18.6709727 C119.976781,22.6223538 123.117326,25.8645127 128.302269,25.8645127 C130.74551,25.8645127 132.88895,25.1552904 134.235376,24.3447507 L133.138561,21.1025919 C132.190977,21.7104966 130.446379,22.5210364 128.202894,22.5210364 C125.610422,22.5210364 124.164285,21.0012744 124.164285,19.17756 C124.164285,17.1508708 125.610422,16.2393536 128.750966,15.023204 C132.93914,13.4021246 135.082915,11.2747978 135.082915,7.62702912 C135.082915,3.32103689 131.79247,0.281512967 126.058784,0.281512967 C123.416792,0.281512967 120.973551,0.940076485 119.278808,1.95325113 L120.375288,5.34738618 Z" id="Path"></path>
                                        </g>
                                        <g transform="translate(0.151015, 0.345091)">
                                            <path d="M27.0194167,12.9196768 C27.0194167,7.54985119 30.0605857,3.49715262 34.3481353,3.49715262 C38.5359746,3.49715262 41.6771886,7.49885247 41.6771886,13.0209943 C41.6771886,17.1750103 39.6331242,22.4435184 34.4481804,22.4435184 C29.262902,22.4435184 27.0194167,17.5802801 27.0194167,12.9196768 M46.16416,13.1729711 C46.16416,4.1050575 39.9821114,0.153676161 34.1490495,0.153676161 C27.6176797,0.153676161 22.5823014,5.01657474 22.5823014,12.7677012 C22.5823014,20.9744163 27.8669558,25.7869961 34.5478913,25.7869961 C41.4777683,25.7869961 46.16416,20.6704639 46.16416,13.1729711" id="Shape"></path>
                                            <path d="M19.1924795,1.62243943 C18.0458093,1.01453463 15.5031926,0.203994904 12.2626026,0.203994904 C4.98373914,0.203994904 0.247157739,5.21920947 0.247157739,12.717042 C0.247157739,20.2651932 5.33272575,25.7363363 13.209852,25.7363363 C15.8023239,25.7363363 18.0956645,25.0777728 19.29219,24.469868 L18.2950854,21.0250742 C17.2481256,21.632979 15.602903,22.190225 13.209852,22.190225 C7.67592153,22.190225 4.68460776,18.0362089 4.68460776,12.9196769 C4.68460776,7.24589878 8.27418429,3.75044621 13.0602863,3.75044621 C15.5530478,3.75044621 17.1982704,4.40866974 18.4446511,4.9662558 L19.1924795,1.62243943 Z" id="Path"></path>
                                        </g>
                                    </g>
                                </g>
                            </g>
                        </g>
                    </g>
                </g>
            </g>
        </g>
    </g>
</svg>