<?xml version="1.0" encoding="utf-8"?>
<!-- Generator: Adobe Illustrator 26.0.2, SVG Export Plug-In . SVG Version: 6.00 Build 0)  -->
<svg version="1.1" id="Layer_1" xmlns="http://www.w3.org/2000/svg" xmlns:xlink="http://www.w3.org/1999/xlink" x="0px" y="0px"
	 viewBox="0 0 1366 204" style="enable-background:new 0 0 1366 204;" xml:space="preserve">
<style type="text/css">
	.st0{fill:#4BC5AD;}
	.st1{fill:#00A938;}
	.st2{fill:#F5003F;}
</style>
<g>
	<circle class="st0" cx="60.19" cy="94.62" r="50.19"/>
	<circle class="st1" cx="211.78" cy="94.62" r="50.19"/>
	<circle class="st2" cx="364.4" cy="94.62" r="50.19"/>
	<g>
		<path fill="white" d="M640.48,141.03c-15.88,8.48-33.63,12.72-53.25,12.72c-9.94,0-19.06-1.61-27.35-4.82c-8.3-3.21-15.45-7.75-21.45-13.63
			s-10.69-12.93-14.09-21.18c-3.39-8.24-5.09-17.38-5.09-27.44c0-10.3,1.7-19.66,5.09-28.08c3.39-8.42,8.09-15.6,14.09-21.54
			c6-5.93,13.15-10.51,21.45-13.72c8.3-3.21,17.42-4.82,27.35-4.82c9.81,0,19.02,1.18,27.63,3.54c8.6,2.36,16.29,6.57,23.08,12.63
			l-16.9,17.09c-4.12-4-9.12-7.09-15-9.27c-5.88-2.18-12.08-3.27-18.63-3.27c-6.66,0-12.7,1.18-18.08,3.54
			c-5.39,2.36-10.03,5.63-13.9,9.81c-3.88,4.18-6.88,9.06-9,14.63c-2.12,5.58-3.18,11.57-3.18,17.99c0,6.91,1.06,13.27,3.18,19.08
			c2.12,5.82,5.12,10.84,9,15.09c3.88,4.24,8.51,7.57,13.9,9.99c5.39,2.42,11.42,3.64,18.08,3.64c5.82,0,11.3-0.55,16.45-1.64
			c5.15-1.09,9.72-2.79,13.72-5.09V95.96h-26.35V75.24h49.26V141.03z"/>
		<path fill="white" d="M660.4,63.24h21.81v13.81h0.36c2.42-5.09,5.88-9.03,10.36-11.81c4.49-2.79,9.64-4.18,15.45-4.18
			c1.33,0,2.63,0.12,3.91,0.36c1.27,0.25,2.57,0.55,3.91,0.91v21.08c-1.82-0.48-3.61-0.88-5.36-1.18c-1.76-0.3-3.49-0.46-5.18-0.46
			c-5.09,0-9.18,0.94-12.27,2.82c-3.09,1.88-5.45,4.03-7.09,6.45c-1.64,2.42-2.73,4.85-3.27,7.27c-0.55,2.43-0.82,4.24-0.82,5.45
			v46.71H660.4V63.24z"/>
		<path fill="white" d="M804.83,150.48h-20.72v-13.99h-0.37c-2.06,4.36-5.21,8.15-9.45,11.36c-4.24,3.21-9.99,4.81-17.27,4.81
			c-5.82,0-10.76-0.94-14.81-2.82c-4.06-1.88-7.36-4.42-9.91-7.63c-2.55-3.21-4.36-6.88-5.45-11c-1.09-4.12-1.64-8.42-1.64-12.9
			V63.24h21.81v44.17c0,2.42,0.12,5.12,0.37,8.09c0.24,2.97,0.87,5.76,1.91,8.36c1.03,2.61,2.61,4.79,4.73,6.54
			c2.12,1.76,5.12,2.64,9,2.64c3.63,0,6.69-0.61,9.18-1.82c2.49-1.21,4.54-2.84,6.18-4.91c1.64-2.06,2.82-4.42,3.54-7.09
			c0.73-2.67,1.09-5.45,1.09-8.36V63.24h21.81V150.48z"/>
		<path fill="white" d="M824.03,63.24h20.72v13.09h0.36c3.15-5.33,7.39-9.21,12.72-11.63c5.33-2.42,11.09-3.64,17.27-3.64
			c6.66,0,12.66,1.18,17.99,3.54c5.33,2.36,9.88,5.61,13.63,9.72c3.75,4.12,6.6,8.97,8.54,14.54c1.94,5.58,2.91,11.57,2.91,18
			c0,6.42-1.03,12.42-3.09,17.99c-2.06,5.58-4.94,10.43-8.63,14.54c-3.7,4.12-8.15,7.36-13.36,9.72c-5.21,2.36-10.9,3.54-17.08,3.54
			c-4.12,0-7.75-0.42-10.9-1.27c-3.15-0.85-5.94-1.94-8.36-3.27c-2.43-1.33-4.49-2.75-6.18-4.27c-1.7-1.51-3.09-3-4.18-4.45h-0.55
			v52.52h-21.81V63.24z M896.36,106.86c0-3.39-0.58-6.66-1.72-9.82c-1.15-3.15-2.85-5.94-5.09-8.36c-2.24-2.42-4.93-4.36-8.08-5.82
			c-3.15-1.45-6.73-2.18-10.72-2.18c-4,0-7.58,0.73-10.72,2.18c-3.15,1.45-5.85,3.39-8.09,5.82c-2.24,2.43-3.94,5.21-5.09,8.36
			c-1.16,3.15-1.73,6.42-1.73,9.82c0,3.39,0.57,6.66,1.73,9.81c1.15,3.15,2.84,5.94,5.09,8.36c2.24,2.42,4.93,4.36,8.09,5.82
			c3.15,1.45,6.72,2.18,10.72,2.18c4,0,7.57-0.73,10.72-2.18c3.15-1.45,5.84-3.39,8.08-5.82c2.24-2.42,3.94-5.21,5.09-8.36
			C895.79,113.53,896.36,110.26,896.36,106.86z"/>
		<path fill="white" d="M986.6,138.49h-0.55c-3.15,4.97-7.15,8.57-11.99,10.82c-4.85,2.24-10.18,3.36-16,3.36c-4,0-7.91-0.54-11.72-1.64
			c-3.82-1.09-7.21-2.72-10.18-4.91c-2.97-2.18-5.36-4.91-7.18-8.18c-1.82-3.27-2.73-7.09-2.73-11.45c0-4.73,0.85-8.75,2.55-12.08
			c1.7-3.33,3.97-6.11,6.82-8.36c2.84-2.24,6.15-4.03,9.91-5.36c3.75-1.33,7.66-2.33,11.72-3c4.06-0.66,8.15-1.09,12.27-1.27
			c4.12-0.18,8-0.27,11.63-0.27h5.45v-2.36c0-5.45-1.88-9.54-5.64-12.27c-3.76-2.73-8.54-4.09-14.36-4.09
			c-4.61,0-8.91,0.82-12.91,2.46c-4,1.64-7.45,3.85-10.36,6.63l-11.45-11.45c4.85-4.97,10.51-8.54,17-10.72
			c6.48-2.18,13.18-3.27,20.08-3.27c6.18,0,11.39,0.7,15.63,2.09c4.24,1.39,7.75,3.18,10.54,5.36s4.94,4.7,6.45,7.54
			c1.51,2.85,2.61,5.72,3.27,8.63c0.66,2.91,1.06,5.72,1.18,8.45c0.12,2.73,0.18,5.12,0.18,7.18v50.16H986.6V138.49z M985.33,111.4
			h-4.54c-3.03,0-6.43,0.12-10.18,0.37c-3.75,0.24-7.3,0.82-10.63,1.72c-3.34,0.91-6.15,2.24-8.45,4c-2.3,1.76-3.45,4.21-3.45,7.36
			c0,2.06,0.45,3.79,1.36,5.18c0.91,1.39,2.09,2.58,3.54,3.54c1.45,0.97,3.09,1.67,4.91,2.09c1.82,0.43,3.63,0.64,5.45,0.64
			c7.51,0,13.05-1.79,16.63-5.36c3.57-3.57,5.36-8.45,5.36-14.63V111.4z"/>
		<path fill="white" d="M1076.38,21.8h50.16c4.85,0,9.64,0.58,14.36,1.73c4.73,1.15,8.93,3.03,12.63,5.63c3.7,2.61,6.69,5.97,9,10.09
			c2.3,4.12,3.45,9.09,3.45,14.9c0,7.27-2.06,13.27-6.18,17.99c-4.12,4.73-9.51,8.12-16.18,10.18v0.36c4,0.49,7.73,1.61,11.18,3.36
			c3.46,1.76,6.39,4,8.82,6.72c2.42,2.73,4.33,5.88,5.72,9.45c1.39,3.58,2.09,7.42,2.09,11.54c0,7.03-1.39,12.87-4.18,17.54
			c-2.79,4.66-6.45,8.42-11,11.27c-4.54,2.85-9.75,4.88-15.63,6.09c-5.88,1.21-11.85,1.82-17.9,1.82h-46.35V21.8z M1099.28,74.15
			h20.9c7.63,0,13.36-1.48,17.18-4.45c3.81-2.97,5.72-6.87,5.72-11.72c0-5.57-1.97-9.72-5.91-12.45
			c-3.94-2.73-10.27-4.09-18.99-4.09h-18.9V74.15z M1099.28,130.85h21.08c2.91,0,6.03-0.18,9.36-0.54c3.33-0.36,6.39-1.21,9.18-2.55
			c2.79-1.33,5.09-3.24,6.91-5.72c1.82-2.48,2.73-5.84,2.73-10.09c0-6.79-2.22-11.51-6.63-14.18c-4.43-2.66-11.3-4-20.63-4h-21.99
			V130.85z"/>
		<path fill="white" d="M1186.79,13.08h21.81v137.4h-21.81V13.08z"/>
		<path fill="white" d="M1225.23,33.62c0-3.51,1.3-6.57,3.91-9.18c2.61-2.6,5.91-3.91,9.91-3.91c4,0,7.36,1.24,10.09,3.73
			c2.73,2.48,4.09,5.61,4.09,9.36c0,3.76-1.37,6.88-4.09,9.36c-2.72,2.49-6.09,3.73-10.09,3.73c-4,0-7.3-1.3-9.91-3.91
			C1226.53,40.19,1225.23,37.13,1225.23,33.62z M1228.32,63.24h21.81v87.24h-21.81V63.24z"/>
		<path fill="white" d="M1293.12,103.59l-30.17-40.35h26.53l17.45,26.17l18.9-26.17h24.9l-29.81,40.35l35.08,46.89h-26.53l-22.72-31.26
			l-22.9,31.26h-25.81L1293.12,103.59z"/>
	</g>
</g>
</svg>
