<svg id="Warstwa_1" data-name="Warstwa 1" xmlns="http://www.w3.org/2000/svg" viewBox="0 0 753.23 202.21"><defs><style>.cls-1{fill:#319fda;}</style></defs><polygon class="cls-1" points="137.95 48.77 137.95 48.77 137.94 48.77 112.21 83.03 119 92.08 137.95 66.85 137.95 96.15 149.08 96.15 149.08 48.77 137.95 48.77"/><polygon class="cls-1" points="91.81 110.18 72.88 135.39 72.88 106.06 61.75 106.06 61.75 150.2 61.75 153.44 72.9 153.44 98.61 119.22 91.81 110.18"/><polygon class="cls-1" points="137.95 106.06 137.95 135.39 116.03 106.21 116.03 106.21 98.2 82.47 98.2 82.47 72.89 48.77 72.88 48.77 72.88 48.77 61.75 48.77 61.75 96.15 72.88 96.15 72.88 66.85 98.62 101.12 98.61 101.14 105.4 110.18 105.42 110.16 137.93 153.44 149.08 153.44 149.08 150.2 149.08 106.06 137.95 106.06"/><path d="M239.4,129.32l-.07-33.87-16.79,28H218.3L201.51,95.89v33.43h-9V78.22h7.81l20.3,33.87L240.5,78.22h7.81l.07,51.1Z"/><path d="M333.1,126.66a25,25,0,0,1-9.79-9.39,27.41,27.41,0,0,1,0-27,25.3,25.3,0,0,1,9.82-9.38,28.8,28.8,0,0,1,14-3.39,29.22,29.22,0,0,1,11.46,2.19A23.45,23.45,0,0,1,367.37,86l-6.13,5.77a17.89,17.89,0,0,0-13.65-6,19.2,19.2,0,0,0-9.42,2.3,16.5,16.5,0,0,0-6.5,6.39,19.59,19.59,0,0,0,0,18.54,16.57,16.57,0,0,0,6.5,6.39,19.2,19.2,0,0,0,9.42,2.3,17.8,17.8,0,0,0,13.65-6.06l6.13,5.84a23.43,23.43,0,0,1-8.8,6.35A29.36,29.36,0,0,1,347.08,130,28.83,28.83,0,0,1,333.1,126.66Z"/><path d="M388.83,126.66a25.06,25.06,0,0,1-9.85-9.42,27.15,27.15,0,0,1,0-26.94,25.06,25.06,0,0,1,9.85-9.42,31,31,0,0,1,28.18,0,25.24,25.24,0,0,1,9.85,9.38,27.26,27.26,0,0,1,0,27,25.26,25.26,0,0,1-9.85,9.39,31,31,0,0,1-28.18,0Zm23.29-7.23a16.8,16.8,0,0,0,6.42-6.43,19.37,19.37,0,0,0,0-18.46,16.67,16.67,0,0,0-6.42-6.43,19.53,19.53,0,0,0-18.4,0,16.53,16.53,0,0,0-6.42,6.43,19.37,19.37,0,0,0,0,18.46,16.67,16.67,0,0,0,6.42,6.43A19.53,19.53,0,0,0,412.12,119.43Z"/><path d="M476.76,80.41a16.71,16.71,0,0,1,7.55,6.28,19.15,19.15,0,0,1,0,19.38,16.78,16.78,0,0,1-7.55,6.31,28.33,28.33,0,0,1-11.57,2.19H453.65v14.75h-9.49V78.22h21A28.31,28.31,0,0,1,476.76,80.41Zm-2.59,23.5a9.14,9.14,0,0,0,3.21-7.51,9.16,9.16,0,0,0-3.21-7.52c-2.15-1.76-5.28-2.63-9.42-2.63h-11.1v20.29h11.1C468.89,106.54,472,105.67,474.17,103.91Z"/><path d="M538.41,121.36v8H500.08V78.22h37.31v8H509.57V99.46h24.68v7.81H509.57v14.09Z"/><path d="M552.64,78.22H575a32.18,32.18,0,0,1,14.53,3.17,23.45,23.45,0,0,1,9.85,9,27.31,27.31,0,0,1,0,26.79,23.39,23.39,0,0,1-9.85,9A32,32,0,0,1,575,129.32H552.64Zm21.9,43.07a21.69,21.69,0,0,0,9.89-2.15A15.39,15.39,0,0,0,591,113a19.65,19.65,0,0,0,0-18.46,15.39,15.39,0,0,0-6.57-6.14,21.69,21.69,0,0,0-9.89-2.15H562.13v35Z"/><path d="M616.59,78.22h9.49v51.1h-9.49Z"/><polygon points="276.85 88.37 258.44 129.28 268.22 129.28 281.18 99.01 276.85 88.37"/><polygon points="290.78 78.18 281.97 78.18 303.92 129.28 313.85 129.28 290.78 78.18"/><polygon points="654.48 88.37 636.08 129.28 645.86 129.28 658.81 99.01 654.48 88.37"/><polygon points="668.42 78.18 659.61 78.18 681.56 129.28 691.48 129.28 668.42 78.18"/></svg>