<?xml version="1.0" encoding="utf-8"?>
<!-- Generator: Adobe Illustrator 22.1.0, SVG Export Plug-In . SVG Version: 6.00 Build 0)  -->
<svg version="1.1" xmlns="http://www.w3.org/2000/svg" xmlns:xlink="http://www.w3.org/1999/xlink" x="0px" y="0px"
	 viewBox="0 0 196 119.1" style="enable-background:new 0 0 196 119.1;" xml:space="preserve">
<style type="text/css">
	.st0{fill:none;}
	.st1{fill:#FFD700;}
	.st2{fill:#FFFFFF;}
	.st3{opacity:0.1;}
	.st4{opacity:0.2;fill:none;stroke:#000000;stroke-width:0.1;stroke-miterlimit:10;}
	.st5{opacity:0.4;}
	.st6{fill:none;stroke:#000000;stroke-width:0.35;stroke-miterlimit:10;}
	.st7{fill:none;stroke:#000000;stroke-width:0.35;stroke-miterlimit:10;stroke-dasharray:1.9945,1.9945;}
</style>
<g id="Warstwa_1">
	<g>
		<rect x="0" y="0" class="st0" width="196" height="119.1"/>
		<g>
			<path d="M151.2,68.3c-2.5,0-4.8-2-4.8-4.5c0-2.5,2.3-4.5,4.8-4.5l0,0v-8c-6.9,0-12.8,5.6-12.8,12.5c0,6.9,5.8,12.5,12.8,12.5l0,0
				V68.3z"/>
			<path d="M42.8,71l4.3-6.2c2.8,2.8,6,4.2,9.5,4.2c2,0,3.8-0.9,3.8-2.5c0-1-0.9-1.9-2.7-2.6l-3-1c-1.9-0.7-3.3-1.2-4.3-1.7
				c-3.7-2-5.5-4.9-5.5-8.7c0-3,1.2-5.5,3.5-7.4c2.3-2,5.3-3,9-3c4.6,0,8.5,1.4,12,4.2l-4,6.5c-2-1.6-5.3-2.8-7.9-2.8
				c-2.3,0-3.6,1-3.6,2.2c0,1,0.9,1.8,2.7,2.5l3,1.1c1.7,0.6,3,1.1,3.9,1.5c4.3,1.8,6.4,4.8,6.4,8.8c0,3.1-1.2,5.7-3.6,7.7
				c-2.4,2-5.6,3-9.7,3C50.9,76.9,46.3,74.9,42.8,71z"/>
			<path d="M94.8,76.3V51.2h7.7v3.1c1.6-2.5,3.8-3.7,6.7-3.7c1.1,0,2.1,0.1,3.1,0.6V59c-1.4-0.5-2.9-0.8-4-0.8
				c-3.7,0-5.5,2.4-5.5,7.2v10.8H94.8z"/>
			<path d="M115.7,44.3c0-2.6,2-4.5,4.6-4.5s4.6,1.9,4.6,4.5c0,2.7-2,4.6-4.6,4.6C117.6,49,115.7,47,115.7,44.3z M124.3,76.3h-8
				V51.2h8V76.3z"/>
			<path d="M90.8,68.1c-1.9,1-3.5,1.5-4.7,1.5c-2.1,0-3.2-1.3-3.2-4v-7.8h7.9v-6.6h-7.9v-8.4h-8v8.4H71v6.6h3.9v8.7
				c0,6.9,3.1,10.4,9.3,10.4c2.4,0,4.6-0.4,6.6-1.3V68.1z"/>
			<path d="M157.6,74.2v1.4H157v-3.5h1c0.9,0,1.4,0.3,1.4,1c0,0.2-0.1,0.4-0.2,0.6c-0.1,0.1-0.3,0.3-0.5,0.4l0.9,1.5h-0.8l-0.8-1.4
				H157.6z M158,73.7c0.2,0,0.4,0,0.5-0.1c0.1-0.1,0.2-0.2,0.2-0.4c0-0.2-0.1-0.3-0.2-0.4c-0.1-0.1-0.3-0.1-0.5-0.1h-0.4v1.1H158z
				 M158.2,71.4c1.4,0,2.5,1.1,2.5,2.5s-1.1,2.5-2.5,2.5s-2.5-1.1-2.5-2.5S156.8,71.4,158.2,71.4 M158.2,70.9c-1.7,0-3,1.3-3,3
				s1.3,3,3,3c1.7,0,3-1.3,3-3S159.8,70.9,158.2,70.9L158.2,70.9z"/>
			<path d="M128.8,59.2c2.5,0,4.8,2,4.8,4.5c0,2.5-2.3,4.5-4.8,4.5l0,0v8c6.9,0,12.8-5.6,12.8-12.5c0-6.9-5.8-12.5-12.8-12.5l0,0
				V59.2z"/>
		</g>
	</g>
</g>
<g id="Warstwa_2">
</g>
</svg>
