<?xml version="1.0" encoding="UTF-8" standalone="no"?><!DOCTYPE svg PUBLIC "-//W3C//DTD SVG 1.1//EN" "http://www.w3.org/Graphics/SVG/1.1/DTD/svg11.dtd"><svg width="100%" height="100%" viewBox="0 0 600 400" version="1.1" xmlns="http://www.w3.org/2000/svg" xmlns:xlink="http://www.w3.org/1999/xlink" xml:space="preserve" xmlns:serif="http://www.serif.com/" style="fill-rule:evenodd;clip-rule:evenodd;stroke-linejoin:round;stroke-miterlimit:1.41421;"><path d="M443.55,133.878c-0.578,5.27 -1.145,10.253 -1.671,15.24c-0.809,7.691 -1.592,15.386 -2.382,23.08c-1.164,11.338 -2.303,22.678 -3.495,34.013c-1.419,13.493 -2.89,26.981 -4.324,40.473c-0.695,6.541 -1.166,13.109 -2.521,19.565c-2.454,11.707 -7.517,22.041 -16.173,30.449c-7.267,7.058 -15.952,11.636 -25.6,14.516c-7.167,2.137 -14.485,2.922 -21.935,2.462c-14.72,-0.904 -26.304,-7.387 -34.643,-19.589c-3.883,-5.683 -6.364,-12.001 -7.964,-18.628c-3.233,-13.386 -6.303,-26.812 -9.377,-40.237c-3.075,-13.429 -6.079,-26.872 -9.105,-40.311c-3.337,-14.828 -6.667,-29.66 -9.995,-44.489c-1.13,-5.032 -2.245,-10.066 -3.375,-15.097c-0.119,-0.528 -0.25,-1.058 -0.437,-1.566c-0.735,-1.994 -1.942,-2.805 -3.834,-2.612c-1.704,0.173 -2.719,1.221 -3.017,3.303c-0.279,1.948 -0.457,3.909 -0.654,5.867c-1.232,12.222 -2.471,24.442 -3.679,36.667c-1.053,10.672 -2.048,21.348 -3.102,32.02c-1.297,13.102 -2.635,26.199 -3.947,39.299c-0.989,9.858 -1.877,19.728 -2.972,29.575c-1.041,9.35 -3.091,18.45 -7.245,26.994c-5.98,12.295 -15.186,21.535 -26.713,28.634c-11.884,7.319 -24.917,11.247 -38.653,13.119c-7.961,1.086 -15.942,1.567 -23.959,0.85c-14.566,-1.302 -28.03,-5.628 -39.703,-14.719c-7.816,-6.084 -13.576,-13.786 -17.691,-22.763c-3.659,-7.981 -6.228,-16.34 -8.716,-24.736c-2.004,-6.765 -4.126,-13.496 -6.198,-20.243c-2.452,-7.978 -4.917,-15.952 -7.353,-23.935c-2.178,-7.139 -4.311,-14.293 -6.489,-21.434c-2.593,-8.503 -5.208,-16.998 -7.818,-25.497c-2.65,-8.626 -5.312,-17.251 -7.956,-25.881c-3.02,-9.86 -5.994,-19.733 -9.047,-29.581c-2.614,-8.425 -5.37,-16.807 -7.954,-25.239c-2.164,-7.069 -4.346,-14.143 -6.191,-21.297c-1.3,-5.049 -1.227,-10.205 0.323,-15.282c2.079,-6.8 6.354,-11.946 12.1,-15.886c11.854,-8.126 25.007,-10.385 39.036,-8.192c12.014,1.878 22.661,6.813 32.002,14.597c7.836,6.53 12.78,14.82 15.292,24.66c1.899,7.428 3.908,14.829 5.872,22.24c2.781,10.495 5.581,20.986 8.348,31.485c2.8,10.631 5.624,21.256 8.339,31.907c3.319,13.021 6.554,26.063 9.794,39.103c2.341,9.419 4.686,18.838 6.928,28.28c2.194,9.244 4.261,18.517 6.382,27.78c0.651,2.844 1.236,5.706 1.956,8.534c0.695,2.725 2.469,3.856 5.122,3.442c2.179,-0.34 3.137,-1.296 3.395,-3.65c0.359,-3.306 0.613,-6.623 0.925,-9.934c0.87,-9.256 1.759,-18.509 2.619,-27.767c1.047,-11.285 2.067,-22.57 3.101,-33.855c1.308,-14.259 2.627,-28.519 3.929,-42.78c1.012,-11.084 1.973,-22.173 3.023,-33.254c0.8,-8.45 1.823,-16.872 4.42,-25.008c2.311,-7.241 5.638,-13.941 10.45,-19.886c6.727,-8.309 15.331,-13.831 25.55,-16.553c19.313,-5.147 38.124,-3.442 56.061,5.487c12.472,6.208 21.341,16.122 27.591,28.452c4.083,8.053 6.5,16.669 8.272,25.473c3.948,19.622 7.858,39.254 11.745,58.889c4.255,21.497 8.464,43.004 12.697,64.505c0.287,1.464 0.54,2.938 0.903,4.383c0.427,1.706 1.966,2.681 3.691,2.447c1.05,-0.144 1.768,-0.958 1.987,-2.511c0.253,-1.813 0.43,-3.639 0.567,-5.466c0.772,-10.287 1.496,-20.578 2.286,-30.864c0.827,-10.758 1.675,-21.514 2.583,-32.265c0.727,-8.588 1.523,-17.171 2.352,-25.749c0.989,-10.265 2.054,-20.525 3.07,-30.787c0.956,-9.657 1.905,-19.314 2.823,-28.975c0.355,-3.728 0.958,-7.389 2.238,-10.932c4.283,-11.861 15.997,-16.761 25.809,-15.711c4.655,0.499 9.33,0.807 13.997,1.19c4.8,0.395 9.602,0.784 14.403,1.164c6.155,0.487 12.313,0.943 18.467,1.446c6.427,0.527 12.857,1.05 19.277,1.657c4.052,0.383 8.15,0.617 12.123,1.428c22.78,4.648 38.494,17.876 47.171,39.425c2.614,6.492 4.089,13.284 5.148,20.201c1.221,7.975 1.152,15.986 0.755,23.972c-0.516,10.366 -2.23,20.544 -5.903,30.352c-6.746,18.003 -19.577,29.395 -37.661,35.222c-4.542,1.464 -9.247,2.142 -13.953,2.758c-7.336,0.959 -14.685,1.823 -22.027,2.725c-1.887,0.231 -3.775,0.459 -5.664,0.673c-4.008,0.455 -7.336,-0.867 -10.028,-3.852c-2.47,-2.739 -4.002,-6.001 -4.866,-9.512c-1.942,-7.906 -1.411,-15.641 2.349,-22.966c0.983,-1.915 2.247,-3.723 3.603,-5.4c2.542,-3.14 5.847,-5.023 9.955,-5.283c6.098,-0.385 12.201,-0.698 18.295,-1.146c3.583,-0.264 7.178,-0.566 10.72,-1.146c18.302,-3.043 21.791,-54.684 -2.384,-56.509c-3.23,-0.359 -6.508,-0.342 -9.764,-0.399c-13.105,-0.231 -26.21,-0.423 -39.313,-0.628c-0.736,-0.012 -1.472,-0.001 -2.394,-0.001Z" style="fill:#ed1c24;fill-rule:nonzero;"/></svg>