<svg width="27" height="21" xmlns="http://www.w3.org/2000/svg">
    <metadata id="metadata8">image/svg+xml</metadata>
    <g transform="scale(0.09)">
        <title>PHPers</title>
        <path fill="#3590c8" fill-rule="nonzero" d="m246.777331,226.56l-34.954666,0l19.336,-115.313599l32.488,19.975066l-16.869333,95.338532l0,0" id="path14"/>
        <path fill="#1a223e" fill-rule="nonzero" d="m211.822665,226.56l-10.486667,-23.174533l-12.582667,-28.081733l42.405333,-64.057333l-19.336,115.313599l0,0" id="path16"/>
        <path fill="#4fc6f4" fill-rule="nonzero" d="m188.753331,175.303734l-43.344,0l30.76,-98.299732l55.227999,33.698133l-42.644,64.601599l0,0" id="path18"/>
        <path fill="#2b6ca7" fill-rule="nonzero" d="m129.331732,226.56l-36.352,0l17.476,-89.169332l65.713599,-60.386666l-46.8376,149.555998l0,0" id="path20"/>
        <path fill="#1a223e" fill-rule="nonzero" d="m92.979732,226.56l-16.080267,-75.131733l-5.5916,-25.2792l39.147866,11.2416l-17.476,89.169332l0,0" id="path22"/>
        <path fill="#275b95" fill-rule="nonzero" d="m176.169332,77.004002l-25.704,-62.695999l93.905332,34.804l48.038666,100.203732l-116.239999,-72.311733l0,0" id="path24"/>
        <path fill="#3ca3d9" fill-rule="nonzero" d="m110.455732,137.390668l-49.883866,-119.602665l83.545466,-18.786666l32.052,78.002666l-65.713599,60.386666l0,0" id="path26"/>
        <path fill="#275b95" fill-rule="nonzero" d="m0,105.787068l20.273466,-40.7244l40.2984,-47.274666l49.883866,119.602665l-110.455732,-31.6036l0,0" id="path28"/>
        <path fill="#44b8eb" fill-rule="nonzero" d="m32.8568,199.879734l-18.873466,-9.129067l-13.983333,-84.963599l44.042133,12.642667l-11.185333,81.449999l0,0" id="path30"/>
        <path fill="#1a223e" fill-rule="nonzero" d="m6.991147,212.514667l-6.991147,-11.232267l13.983333,-10.531733l18.873466,9.129067l-25.865653,12.634933l0,0" id="path32"/>
        <path transform="matrix(0.13333333198682146,0,0,-0.13333333198682146,0,227.56000000000003) " id="svg_1" d="m556.497748,60.186672c0,0 162.666663,35.999999 162.666663,37.333332" opacity="0.5" stroke-width="1.5" stroke="#000" fill="#fff"/>
    </g>
</svg>
