<?xml version="1.0" encoding="iso-8859-1"?>
<!-- Generator: Adobe Illustrator 16.0.0, SVG Export Plug-In . SVG Version: 6.00 Build 0)  -->
<!DOCTYPE svg PUBLIC "-//W3C//DTD SVG 1.1//EN" "http://www.w3.org/Graphics/SVG/1.1/DTD/svg11.dtd">
<svg version="1.1" id="Capa_1" xmlns="http://www.w3.org/2000/svg" xmlns:xlink="http://www.w3.org/1999/xlink" x="0px" y="0px"
	 width="79.536px" height="79.537px" viewBox="0 0 79.536 79.537" style="enable-background:new 0 0 79.536 79.537;"
	 xml:space="preserve">
<g>
	<path style="fill:#010002;" d="M54.894,50.803v4.365c0,7.451-5.447,13.623-12.562,14.851v4.386h3.857v5.132H33.355v-5.132h3.855
		v-4.386c-7.117-1.222-12.552-7.399-12.552-14.851v-4.365c0-1.419,1.149-2.563,2.565-2.563c1.417,0,2.566,1.149,2.566,2.563v4.365
		c0,5.504,4.477,9.978,9.981,9.978c5.512,0,9.991-4.474,9.991-9.978v-4.365c0-1.419,1.149-2.563,2.563-2.563
		C53.743,48.24,54.894,49.384,54.894,50.803z M39.766,28.553c-4.249,0-7.695,3.438-7.695,7.705v17.658
		c0,4.246,3.446,7.699,7.695,7.699c4.259,0,7.702-3.453,7.702-7.699V36.258C47.468,31.991,44.024,28.553,39.766,28.553z
		 M49.26,23.861c0-0.249-0.052-0.482-0.135-0.709c-1.574-3.788-5.235-6.247-9.313-6.268h-0.152
		c-4.094-0.034-7.765,2.364-9.396,6.128c-0.394,0.93,0.031,1.993,0.942,2.392c0.935,0.388,2.009-0.031,2.402-0.95
		c1.033-2.411,3.42-3.948,6.027-3.933h0.16c2.607,0.021,4.959,1.61,5.974,4.018c0.357,0.927,1.435,1.375,2.361,0.981
		C48.835,25.233,49.244,24.565,49.26,23.861z M53.392,18.463c0.544-0.345,0.85-0.933,0.854-1.538c0-0.329-0.094-0.673-0.285-0.971
		c-3.045-4.894-8.306-7.863-14.084-7.889h-0.15c-5.779-0.054-11.081,2.833-14.198,7.682c-0.542,0.844-0.309,1.973,0.536,2.509
		c0.841,0.551,1.97,0.313,2.522-0.541c2.457-3.801,6.597-6.043,11.114-6.017h0.148c4.522,0.036,8.645,2.343,11.026,6.172
		C51.403,18.74,52.526,18.994,53.392,18.463z M60.454,11.77C56.104,4.464,48.437,0.057,39.938,0h-0.157
		c-8.49-0.064-16.226,4.23-20.692,11.48c-0.528,0.854-0.264,1.973,0.601,2.514c0.86,0.522,1.983,0.248,2.509-0.601
		c3.78-6.154,10.354-9.811,17.572-9.756h0.143c7.197,0.07,13.722,3.806,17.408,10.012c0.519,0.852,1.637,1.149,2.507,0.624
		c0.569-0.344,0.891-0.942,0.891-1.559C60.719,12.397,60.641,12.079,60.454,11.77z"/>
</g>
<g>
</g>
<g>
</g>
<g>
</g>
<g>
</g>
<g>
</g>
<g>
</g>
<g>
</g>
<g>
</g>
<g>
</g>
<g>
</g>
<g>
</g>
<g>
</g>
<g>
</g>
<g>
</g>
<g>
</g>
</svg>
