<?xml version="1.0" encoding="UTF-8" standalone="no"?>
<!-- Generator: Adobe Illustrator 16.0.4, SVG Export Plug-In . SVG Version: 6.00 Build 0)  -->
<svg id="Layer_1" xmlns:rdf="http://www.w3.org/1999/02/22-rdf-syntax-ns#" xmlns="http://www.w3.org/2000/svg" enable-background="new 0 0 205 60" xml:space="preserve" height="260" viewBox="0 0 260 260" width="260" version="1.1" y="0px" x="0px" xmlns:cc="http://creativecommons.org/ns#" xmlns:dc="http://purl.org/dc/elements/1.1/"><metadata id="metadata3474"><rdf:RDF><cc:Work rdf:about=""><dc:format>image/svg+xml</dc:format><dc:type rdf:resource="http://purl.org/dc/dcmitype/StillImage"/><dc:title/></cc:Work></rdf:RDF></metadata><g id="g3434" transform="translate(0,200)"><g id="g3436" transform="matrix(3.3872 0 0 3.3872 1.2333 -172.96)"><polygon id="polygon3438" points="68.713 34.805 64.316 59.653 64.316 59.653 55.207 59.653 60.245 29.6" fill="#008bc2"/><polygon id="polygon3440" points="60.245 29.6 55.207 59.653 55.207 59.653 52.473 53.612 49.194 46.295" fill="#1f2241"/><polygon id="polygon3442" points="60.308 29.458 49.194 46.295 49.194 46.295 37.897 46.295 45.915 20.675" fill="#1dbbee"/><polygon id="polygon3444" points="45.915 20.675 33.708 59.653 33.708 59.653 24.232 59.653 28.787 36.412" fill="#006a9f"/><polygon id="polygon3446" points="28.787 36.412 24.232 59.653 24.232 59.653 20.042 40.071 18.585 33.483" fill="#1f2241"/><polygon id="polygon3448" points="76.209 39.521 45.915 20.675 45.915 20.675 39.214 4.336 63.689 13.406" fill="#01588c"/><polygon id="polygon3450" points="45.915 20.675 28.787 36.412 28.787 36.412 15.786 5.243 37.56 0.347" fill="#009dd4"/><polygon id="polygon3452" points="28.787 36.412 0 28.178 0 28.178 5.284 17.563 15.786 5.243" fill="#01588c"/><polygon id="polygon3454" points="11.479 31.473 8.563 52.698 8.563 52.698 3.645 50.32 0 28.178" fill="#00aee5"/><polygon id="polygon3456" points="8.563 52.698 1.822 55.993 1.822 55.993 0 53.065 3.645 50.32" fill="#1f2241"/></g><path id="path3458" d="m-152.31-36.753h-6.501l3.341-19.87c0.085-0.506 0.24-0.995 0.461-1.458 0.223-0.465 0.618-0.884 1.191-1.26 0.446-0.288 0.885-0.463 1.316-0.53 0.432-0.066 0.857-0.1 1.277-0.1h8.159c0.288 0 0.633 0.015 1.036 0.05 0.404 0.032 0.83 0.109 1.272 0.232 0.445 0.123 0.883 0.302 1.317 0.548 0.435 0.243 0.814 0.574 1.144 0.994 0.363 0.463 0.625 0.98 0.786 1.543 0.157 0.562 0.249 1.138 0.271 1.723 0.024 0.586 0.005 1.155-0.054 1.708-0.061 0.553-0.126 1.041-0.195 1.458-0.065 0.378-0.157 0.859-0.276 1.444-0.122 0.587-0.281 1.2-0.477 1.841s-0.446 1.281-0.754 1.926c-0.307 0.639-0.667 1.205-1.08 1.689-0.495 0.574-1.024 1.023-1.586 1.342-0.562 0.322-1.132 0.559-1.712 0.714-0.579 0.155-1.138 0.255-1.676 0.299s-1.039 0.065-1.503 0.065h-4.81l-0.947 5.642zm4.593-10.348c0.708 0 1.276-0.155 1.704-0.467 0.428-0.309 0.743-0.606 0.946-0.895 0.237-0.353 0.416-0.757 0.536-1.211 0.121-0.453 0.229-0.967 0.326-1.54 0.085-0.509 0.146-0.974 0.185-1.396 0.036-0.42 0.019-0.805-0.055-1.161-0.072-0.353-0.203-0.629-0.391-0.827-0.187-0.2-0.389-0.349-0.604-0.449-0.216-0.099-0.427-0.161-0.633-0.183s-0.354-0.033-0.442-0.033h-2.288c-0.067 0-0.165 0.029-0.296 0.085-0.13 0.053-0.222 0.104-0.274 0.148-0.18 0.154-0.291 0.354-0.332 0.597l-1.232 7.331h2.85z"/><path id="path3460" d="m-133.47-65.611h6.5l-0.946 5.64h3.879c0.487 0 0.984 0.004 1.492 0.015 0.505 0.014 1.005 0.056 1.502 0.133 0.495 0.077 0.971 0.205 1.43 0.382 0.455 0.177 0.889 0.431 1.296 0.765 0.718 0.595 1.202 1.329 1.454 2.205 0.251 0.872 0.305 1.74 0.159 2.602l-1.93 11.475h-6.501l1.505-8.953c0.071-0.421 0.103-0.906 0.097-1.46-0.006-0.553-0.199-1.072-0.583-1.559-0.324-0.442-0.714-0.724-1.168-0.847-0.455-0.121-0.904-0.183-1.346-0.183h-2.058l-2.187 13.001h-6.5l3.905-23.216z"/><path id="path3462" d="m-111.12-36.753h-6.501l3.341-19.87c0.087-0.506 0.239-0.995 0.46-1.458 0.224-0.465 0.619-0.884 1.191-1.26 0.446-0.288 0.888-0.463 1.316-0.53 0.433-0.066 0.855-0.1 1.278-0.1h8.161c0.285 0 0.631 0.015 1.034 0.05 0.404 0.032 0.828 0.109 1.271 0.232 0.444 0.123 0.883 0.302 1.318 0.548 0.435 0.243 0.813 0.574 1.142 0.994 0.365 0.463 0.625 0.98 0.786 1.543 0.159 0.562 0.251 1.138 0.274 1.723 0.022 0.586 0.004 1.155-0.058 1.708-0.058 0.553-0.123 1.041-0.194 1.458-0.063 0.378-0.154 0.859-0.275 1.444-0.122 0.587-0.278 1.2-0.476 1.841-0.195 0.641-0.447 1.281-0.755 1.926-0.306 0.639-0.666 1.205-1.079 1.689-0.496 0.574-1.023 1.023-1.587 1.342-0.562 0.322-1.134 0.559-1.711 0.714-0.579 0.155-1.138 0.255-1.678 0.299-0.536 0.044-1.038 0.065-1.502 0.065h-4.81l-0.946 5.642zm4.593-10.348c0.708 0 1.276-0.155 1.703-0.467 0.429-0.309 0.744-0.606 0.947-0.895 0.237-0.353 0.415-0.757 0.536-1.211 0.119-0.453 0.229-0.967 0.325-1.54 0.085-0.509 0.146-0.974 0.185-1.396 0.038-0.42 0.021-0.805-0.055-1.161-0.072-0.353-0.204-0.629-0.39-0.827-0.188-0.2-0.39-0.349-0.606-0.449-0.215-0.099-0.427-0.161-0.631-0.183-0.208-0.022-0.355-0.033-0.443-0.033h-2.288c-0.066 0-0.165 0.029-0.297 0.085-0.132 0.053-0.223 0.104-0.273 0.148-0.181 0.154-0.291 0.354-0.332 0.597l-1.233 7.331h2.852z"/><path id="path3464" d="m-89.106-42.394c-0.662 0-1.292-0.011-1.886-0.032-0.594-0.023-1.145-0.104-1.649-0.248-0.506-0.145-0.957-0.368-1.347-0.68-0.39-0.31-0.712-0.753-0.97-1.325-0.27-0.644-0.376-1.455-0.321-2.441 0.057-0.98 0.219-2.271 0.485-3.861 0.135-0.797 0.264-1.561 0.387-2.29 0.121-0.73 0.272-1.409 0.457-2.039 0.185-0.632 0.42-1.21 0.708-1.74 0.287-0.531 0.665-0.998 1.131-1.394 0.467-0.42 1.024-0.748 1.673-0.979 0.647-0.232 1.345-0.403 2.094-0.514 0.747-0.11 1.527-0.178 2.338-0.2 0.812-0.022 1.636-0.033 2.476-0.033 1.792 0 3.264 0.056 4.417 0.167 1.154 0.11 2.035 0.453 2.646 1.026 0.365 0.333 0.633 0.742 0.806 1.23 0.171 0.486 0.28 0.994 0.324 1.523 0.043 0.531 0.034 1.068-0.022 1.608-0.058 0.542-0.127 1.057-0.209 1.542-0.097 0.575-0.244 1.157-0.442 1.743-0.198 0.585-0.585 1.077-1.16 1.476-0.329 0.244-0.635 0.386-0.918 0.431-0.285 0.046-0.582 0.067-0.89 0.067h-9.587c-0.062 0.242-0.09 0.496-0.079 0.762 0.011 0.265 0.058 0.487 0.138 0.663 0.214 0.444 0.586 0.692 1.119 0.745 0.531 0.059 1.084 0.086 1.659 0.086h8.525l-0.791 4.707h-11.112zm6.042-11.077c0.465 0 0.774-0.11 0.935-0.331 0.157-0.222 0.253-0.421 0.282-0.597 0.042-0.244 0.003-0.476-0.114-0.696-0.118-0.223-0.411-0.388-0.879-0.498-0.258-0.044-0.562-0.079-0.913-0.1-0.35-0.021-0.613-0.032-0.789-0.032-0.376 0-0.787 0.015-1.236 0.05-0.448 0.033-0.805 0.115-1.069 0.248-0.362 0.176-0.616 0.437-0.762 0.778-0.146 0.344-0.234 0.734-0.264 1.178h4.809z"/><path id="path3466" d="m-74.046-52.576c0.071-0.417 0.164-0.879 0.281-1.376 0.115-0.497 0.289-1.006 0.521-1.526 0.232-0.519 0.527-1.021 0.886-1.509 0.359-0.486 0.813-0.928 1.367-1.325 0.553-0.398 1.136-0.708 1.748-0.93 0.61-0.221 1.221-0.386 1.824-0.497 0.605-0.11 1.181-0.175 1.725-0.198 0.546-0.023 1.041-0.033 1.483-0.033h4.312l-0.77 4.575h-2.256c-0.641 0-1.257 0.072-1.845 0.218-0.586 0.142-1.139 0.489-1.651 1.043-0.462 0.508-0.792 1.066-0.993 1.676-0.203 0.608-0.347 1.167-0.432 1.675l-1.412 8.39h-6.501l1.713-10.183z"/><path id="path3468" d="m-60.589-47.101h9.586c0.133 0 0.273-0.047 0.421-0.135 0.121-0.066 0.194-0.175 0.221-0.332 0.021-0.107 0-0.193-0.057-0.248-0.058-0.054-0.115-0.105-0.175-0.147-0.101-0.067-0.274-0.138-0.526-0.215-0.254-0.077-0.704-0.24-1.346-0.482l-3.575-1.228c-0.751-0.266-1.418-0.58-1.997-0.945-0.581-0.365-0.989-0.823-1.228-1.379-0.175-0.417-0.264-0.903-0.27-1.457s0.027-1.051 0.101-1.492c0.094-0.553 0.248-1.099 0.459-1.643 0.213-0.542 0.513-1.044 0.901-1.508 0.583-0.708 1.224-1.162 1.92-1.362 0.697-0.197 1.511-0.296 2.439-0.296h11.741l-0.759 4.509h-9.553c-0.11 0-0.23-0.004-0.362-0.017-0.13-0.01-0.267 0.006-0.405 0.051-0.093 0.021-0.169 0.05-0.23 0.082-0.062 0.034-0.101 0.104-0.12 0.215-0.021 0.134-0.003 0.224 0.055 0.267 0.059 0.045 0.141 0.088 0.246 0.133 0.185 0.065 0.32 0.115 0.403 0.148 0.084 0.032 0.155 0.067 0.217 0.102 0.06 0.032 0.132 0.064 0.215 0.099 0.082 0.032 0.218 0.082 0.405 0.148l4.194 1.494c0.877 0.311 1.624 0.63 2.243 0.961 0.619 0.333 1.086 0.808 1.402 1.427 0.319 0.596 0.469 1.215 0.451 1.856-0.021 0.641-0.061 1.149-0.125 1.523-0.109 0.645-0.313 1.309-0.615 1.992-0.306 0.687-0.795 1.271-1.474 1.758-0.529 0.379-1.055 0.61-1.577 0.696-0.524 0.091-1.006 0.132-1.448 0.132h-12.57l0.792-4.707z"/></g></svg>
