<?xml version="1.0" encoding="utf-8"?>
<!-- Generator: Adobe Illustrator 19.1.0, SVG Export Plug-In . SVG Version: 6.00 Build 0)  -->
<svg version="1.1" id="Warstwa_1" xmlns="http://www.w3.org/2000/svg" xmlns:xlink="http://www.w3.org/1999/xlink" x="0px" y="0px"
	 viewBox="0 0 400 400" style="enable-background:new 0 0 400 400;" xml:space="preserve">
<style type="text/css">
	.st0{fill:#01588C;}
</style>
<g>
	<path class="st0" d="M203.8,312.1c-7.2,0-13.1-5.9-13.1-13.1v-27.7l-106.2,0.3c-31.7,0-41.9-2.8-41.9-35.6V99.3
		c0-7.2,5.9-13.1,13.1-13.1s13.1,5.9,13.1,13.1V236c0,2.6,0,6.4,0.2,9c3.5,0.3,9.6,0.3,15.5,0.3l119.3-0.3c0,0,0,0,0,0
		c3.5,0,6.8,1.4,9.3,3.8c2.5,2.5,3.9,5.8,3.9,9.3V299C216.9,306.2,211,312.1,203.8,312.1z"/>
	<path class="st0" d="M313.7,381c-2.3,0-4.7-0.6-6.8-1.9l-106.7-64.6L101,378.9c-6.1,3.9-14.2,2.2-18.1-3.9
		c-3.9-6.1-2.2-14.2,3.9-18.1L192.8,288c4.2-2.8,9.6-2.8,13.9-0.2l113.7,68.9c6.2,3.8,8.2,11.8,4.4,18
		C322.5,378.7,318.1,381,313.7,381z"/>
	<path class="st0" d="M319.6,271.7c-1.4,0-2.5-0.1-3.3-0.2h-67.1c-7.2,0-13.1-5.9-13.1-13.1s5.9-13.1,13.1-13.1H317
		c0.7,0,1.3,0.1,2,0.2c1.1,0.1,4.2,0,5.7-1.4c1.3-1.2,2.1-4.2,2.1-8.1V99.3c0-7.2,5.9-13.1,13.1-13.1h2.3V64.9H57.8v21.3h207.8
		c7.2,0,13.1,5.9,13.1,13.1s-5.9,13.1-13.1,13.1H44.7c-7.2,0-13.1-5.9-13.1-13.1V51.8c0-7.2,5.9-13.1,13.1-13.1h310.6
		c7.2,0,13.1,5.9,13.1,13.1v47.5c0,7.2-5.9,13.1-13.1,13.1H353V236c0,15.1-6.2,23.6-11.3,28C334.1,270.6,325,271.7,319.6,271.7z"/>
	<path class="st0" d="M232.5,45.2h-67.1c-7.2,0-13.1-5.9-13.1-13.1S158.1,19,165.3,19h67.1c7.2,0,13.1,5.9,13.1,13.1
		S239.7,45.2,232.5,45.2z"/>
</g>
</svg>
