<?xml version="1.0" encoding="utf-8"?>
<!-- Generator: Adobe Illustrator 19.1.0, SVG Export Plug-In . SVG Version: 6.00 Build 0)  -->
<svg version="1.1" id="Warstwa_1" xmlns="http://www.w3.org/2000/svg" xmlns:xlink="http://www.w3.org/1999/xlink" x="0px" y="0px"
	 viewBox="0 0 200 200" style="enable-background:new 0 0 200 200;" xml:space="preserve">
<style type="text/css">
	.st0{fill:#01588C;}
</style>
<g>
	<path class="st0" d="M58.3,137.5c6.7,17.1,22.2,29.2,41.7,29.2c19.4,0,35-12.1,41.7-29.2H58.3z"/>
	<path class="st0" d="M79.2,81.3c0,8.1-6.5,14.6-14.6,14.6S50,89.3,50,81.3c0-8.1,6.5-14.6,14.6-14.6S79.2,73.2,79.2,81.3"/>
	<path class="st0" d="M150,81.3c0,8.1-6.5,14.6-14.6,14.6c-8.1,0-14.6-6.5-14.6-14.6c0-8.1,6.5-14.6,14.6-14.6
		C143.5,66.7,150,73.2,150,81.3"/>
	<path class="st0" d="M100,0C44.8,0,0,44.8,0,100c0,55.2,44.8,100,100,100c55.2,0,100-44.8,100-100C200,44.8,155.2,0,100,0
		 M100,183.3c-46,0-83.3-37.4-83.3-83.3c0-15,4.1-29.1,11.1-41.3c26-6.8,38.3-23.2,43.8-35.2c9.3,12.9,34.7,35,99.7,33.5
		c7.6,12.6,12.1,27.3,12.1,43C183.3,146,145.9,183.3,100,183.3"/>
	<path class="st0" d="M150.4,110.6c-2.1-1.9-5.3-1.8-7.2,0.2c-0.5,0.6-1.1,1.1-1.6,1.6c-2.3,2-7.4,5.3-11.8,3.6
		c-5.3-2.1-10.3-3.2-15.1-3.2c-8.7,0-13.4,3.6-13.9,4c-0.3,0.2-0.5,0.6-0.7,0.9c-0.2-0.3-0.4-0.7-0.8-0.9c-0.5-0.4-5.2-4-13.9-4
		c-4.7,0-9.8,1.1-15.1,3.2c-4.5,1.8-9.6-1.6-11.8-3.6c-0.5-0.5-1.1-1-1.6-1.6c-2-2-5.2-2.1-7.2-0.2c-2.1,1.9-2.3,5.1-0.4,7.2
		c0,0,0.8,1,2.3,2.3c10.8,10.1,21.6,12.3,28.7,12.3c8.6,0,17-3.2,19.9-7.5c2.9,4.3,11.4,7.5,19.9,7.5l0,0c7.1,0,17.9-2.1,28.7-12.3
		c1.4-1.3,2.3-2.3,2.3-2.3C152.7,115.8,152.5,112.5,150.4,110.6"/>
</g>
</svg>
