<?xml version="1.0" encoding="utf-8"?>
<!-- Generator: Adobe Illustrator 19.1.0, SVG Export Plug-In . SVG Version: 6.00 Build 0)  -->
<svg version="1.1" id="Warstwa_1" xmlns="http://www.w3.org/2000/svg" xmlns:xlink="http://www.w3.org/1999/xlink" x="0px" y="0px"
	 viewBox="0 0 200 200" style="enable-background:new 0 0 200 200;" xml:space="preserve">
<style type="text/css">
	.st0{fill:#01588C;}
</style>
<g>
	<path class="st0" d="M62,140.3c6.1,15.7,20.5,26.8,38.3,26.8s32.2-11.1,38.3-26.8H62z"/>
	<path class="st0" d="M81.2,88.5c0,7.4-6,13.4-13.4,13.4s-13.4-6-13.4-13.4c0-7.4,6-13.4,13.4-13.4S81.2,81.1,81.2,88.5"/>
	<path class="st0" d="M146.3,88.5c0,7.4-6,13.4-13.4,13.4c-7.4,0-13.4-6-13.4-13.4c0-7.4,6-13.4,13.4-13.4
		C140.3,75.1,146.3,81.1,146.3,88.5"/>
	<path class="st0" d="M100.2,2.3c-1,0-2.1-0.1-3.2-0.1c-21.3,0-44.4,8.3-61.7,22.2C19.4,37.2,0.4,61.2,0,102.8c0,2,0.8,3.3,1.5,4
		c0.7,0.7,2,1.6,4.2,1.6c0.8,0,1.8-0.2,2.7-0.4c1.2,49.8,41.9,89.7,91.9,89.7c50.2,0,91-40.2,91.9-90.2c0.4-0.1,0.8-0.1,1.2-0.2
		c3.8-1,6.5-4.5,6.5-8.5C200,98,199.3,6.6,100.2,2.3 M100.4,182.4c-42.3,0-76.7-34.4-76.7-76.7c0-6.1,0.8-12,2.2-17.7
		c4.3-4.7,9.6-8.7,17.8-12.3c1.6-0.7,2.5-2.4,2.2-4.1c-0.7-4.1-1.1-9.8-0.8-15.1c1.6,6.3,3.6,12.3,5.8,14.6c1,1,2.6,1.4,4,0.9
		c1.4-0.5,2.4-1.7,2.5-3.2c0.9-7.9,2.3-15.7,3.9-22v17.7c0,1.2,0.5,2.3,1.5,3c0.9,0.7,2.1,1,3.3,0.7c0.1,0,15.2-3.8,33.7-4.5
		c29.2-1.1,59.2,10.9,76,29.2c0.7,4.2,1.2,8.4,1.2,12.8C177,148.1,142.6,182.4,100.4,182.4"/>
</g>
</svg>
