<?xml version="1.0" encoding="utf-8"?>
<!-- Generator: Adobe Illustrator 19.1.0, SVG Export Plug-In . SVG Version: 6.00 Build 0)  -->
<svg version="1.1" id="Warstwa_1" xmlns="http://www.w3.org/2000/svg" xmlns:xlink="http://www.w3.org/1999/xlink" x="0px" y="0px"
	 viewBox="0 0 200 200" style="enable-background:new 0 0 200 200;" xml:space="preserve">
<style type="text/css">
	.st0{fill:#01588C;}
</style>
<g>
	<path class="st0" d="M82.4,99.8c0,6.8-5.5,12.3-12.3,12.3c-6.8,0-12.3-5.5-12.3-12.3c0-6.8,5.5-12.3,12.3-12.3
		C76.9,87.5,82.4,93,82.4,99.8"/>
	<path class="st0" d="M142.2,99.8c0,6.8-5.5,12.3-12.3,12.3c-6.8,0-12.3-5.5-12.3-12.3c0-6.8,5.5-12.3,12.3-12.3
		C136.7,87.5,142.2,93,142.2,99.8"/>
	<path class="st0" d="M64.8,147.2c5.6,14.4,18.8,24.6,35.2,24.6c16.4,0,29.6-10.2,35.2-24.6H64.8z"/>
	<path class="st0" d="M104.4,31.2c0,0,0-0.1,0-0.1V13l31.9,5.6c0.2,0,0.4,0.1,0.6,0.1c0,0,0.5,0,1.3,0c7.9,0,13.2-1.6,15.6-4.9
		c1.5-2,1.7-4.4,0.6-6.6C151.9,2.2,141.8,0,138.2,0c-1.4,0-23.6,2.4-36.7,3.8c-0.2,0-0.4,0.1-0.5,0.2c-0.3-0.1-0.6-0.2-0.9-0.2
		c-0.5,0-0.9,0.1-1.3,0.3c-0.3-0.1-0.5-0.2-0.8-0.2C84.7,2.4,62.5,0,61,0c-3.6,0-13.6,2.2-16.2,7.3c-1.1,2.2-0.8,4.6,0.6,6.6
		c2.4,3.2,7.7,4.9,15.6,4.9c0.8,0,1.3,0,1.3,0c0.2,0,0.4,0,0.6-0.1l32.7-5.7v18.2c0,0,0,0.1,0,0.1C51,33.5,15.6,70.4,15.6,115.6
		c0,46.6,37.8,84.4,84.4,84.4c46.6,0,84.4-37.8,84.4-84.4C184.4,70.4,149,33.5,104.4,31.2 M157.2,74.7h-24.4
		c-1-5.9-4.5-16.9-15.8-27.4C133.5,51.5,147.6,61.3,157.2,74.7 M99.4,45.3c17.8,10.3,22.9,22.9,24.4,29.4H75.1
		C76.5,68.2,81.6,55.6,99.4,45.3 M81.4,47.8c-10.9,10.4-14.3,21.1-15.3,27H42.8C52.1,61.7,65.7,52.1,81.4,47.8 M100,185.9
		c-38.8,0-70.4-31.6-70.4-70.4c0-11.5,2.8-22.4,7.8-32h91.3h0.1h33.8c4.9,9.6,7.8,20.5,7.8,32C170.4,154.4,138.8,185.9,100,185.9"/>
	<path class="st0" d="M64.8,147.3c5.6,14.4,18.8,24.6,35.2,24.6s29.5-10.2,35.2-24.6H64.8z"/>
</g>
</svg>
