<?xml version="1.0" encoding="utf-8"?>
<!-- Generator: Adobe Illustrator 19.1.0, SVG Export Plug-In . SVG Version: 6.00 Build 0)  -->
<svg version="1.1" id="Warstwa_1" xmlns="http://www.w3.org/2000/svg" xmlns:xlink="http://www.w3.org/1999/xlink" x="0px" y="0px"
	 viewBox="0 0 200 200" style="enable-background:new 0 0 200 200;" xml:space="preserve">
<style type="text/css">
	.st0{fill:#01588C;}
</style>
<g>
	<path class="st0" d="M182.7,121.6c-0.8-2.9-2.5-5.4-4.4-7.4c1.3-5.8,2-11.8,2-18c0-8-1.2-15.6-3.3-22.9V56.2
		c0-34.9-31-42-38.2-43.2c-6.9-8.6-16.3-13-27.7-13c-14,0-26.9,6.6-31.1,9.1C74.4,7.1,69.2,6,64.3,6c-17,0-26.6,12.7-29.9,20.7
		c-5.8,1.8-10.2,5.4-13.2,10.7c-9,16-1.2,42-0.8,43.1c0.2,0.7,0.6,1.2,1.1,1.6c-0.8,4.6-1.3,9.3-1.3,14.1c0,5.6,0.6,11,1.7,16.2
		c-2,2.4-3.9,5.4-4.6,8.9c-0.8,4.2,0.1,8.4,2.7,12.4c-0.9,6.7,0.4,17.7,10.3,21.7c0.7,7.8,5,19.3,17.2,20.7
		c2,7.1,7.7,17.2,19.1,17.2c0.8,0,1.7-0.1,2.6-0.2c2.7,2.2,9.4,6.9,18.4,6.8c4.4,0,8.7-1.1,12.9-3.4c4.7,1.8,9.1,2.8,13.1,2.8l0,0
		c10.8,0,16.3-6.4,18.5-10c0.8,0.1,1.6,0.1,2.4,0.1c10.8,0,16.3-8.1,18.4-13.9c12.3-1.4,16.6-12.9,17.3-20.7
		c9.9-4,11.2-15,10.3-21.7C183.6,128.4,183.4,124.3,182.7,121.6 M100.3,149.6c-15.6,0-28-9.7-33.4-23.4h66.7
		C128.3,139.9,115.8,149.6,100.3,149.6 M166.2,106.2c-1.6-0.6-3.2-0.9-4.9-0.9c-6.1,0-11.4,3.9-14.3,6.8c-3.2-2.8-6.9-4.3-10.9-4.3
		c-5.6,0-10.4,2.8-12.9,4.6c-2.9-1.2-5.9-1.8-8.8-1.8c-6.3,0-11.2,2.7-14,4.6c-3.9-3-8.5-4.5-13.5-4.5c-4,0-7.5,1-9.5,1.7
		c-4-2.7-8.2-4-12.4-4c-4.7,0-8.5,1.7-10.9,3.2c-5.5-5.8-11.6-7.1-15.9-7.1c-1.4,0-2.8,0.2-4,0.4c-0.4-2.9-0.6-5.7-0.6-8.7
		c0-15,5.1-28.9,13.5-40c1.7,0.2,3.4,0.3,5.2,0.3c19.5,0,35.8-10.9,46.6-18.1c3.8-2.5,7.1-4.7,9.5-5.8c1.7-0.8,3.4-1.3,5.1-1.7
		c30.5,6.1,53.6,33.1,53.6,65.4C167,99.6,166.7,102.9,166.2,106.2"/>
	<path class="st0" d="M86.1,84c0,5.5-4.4,9.9-9.9,9.9s-9.9-4.4-9.9-9.9c0-5.5,4.4-9.9,9.9-9.9S86.1,78.5,86.1,84"/>
	<path class="st0" d="M134.2,84c0,5.5-4.4,9.9-9.9,9.9c-5.5,0-9.9-4.4-9.9-9.9c0-5.5,4.4-9.9,9.9-9.9
		C129.8,74.1,134.2,78.5,134.2,84"/>
</g>
</svg>
