<?xml version="1.0" encoding="utf-8"?>
<!-- Generator: Adobe Illustrator 19.1.0, SVG Export Plug-In . SVG Version: 6.00 Build 0)  -->
<svg version="1.1" id="Warstwa_1" xmlns="http://www.w3.org/2000/svg" xmlns:xlink="http://www.w3.org/1999/xlink" x="0px" y="0px"
	 viewBox="0 0 200 200" style="enable-background:new 0 0 200 200;" xml:space="preserve">
<style type="text/css">
	.st0{fill:#01588C;}
</style>
<g>
	<path class="st0" d="M62.1,143.2c6.1,15.5,20.2,26.5,37.9,26.5c17.7,0,31.8-11,37.9-26.5H62.1z"/>
	<path class="st0" d="M81,92c0,7.3-5.9,13.3-13.3,13.3c-7.3,0-13.3-5.9-13.3-13.3c0-7.3,5.9-13.3,13.3-13.3C75.1,78.7,81,84.7,81,92
		"/>
	<path class="st0" d="M145.5,92c0,7.3-5.9,13.3-13.3,13.3c-7.3,0-13.3-5.9-13.3-13.3c0-7.3,5.9-13.3,13.3-13.3
		C139.5,78.7,145.5,84.7,145.5,92"/>
	<path class="st0" d="M163.8,44.2c-2.9-7.7-10.7-24.9-28-38.7c-2.4-2-6-1.6-8,0.9c-2,2.4-1.6,6,0.9,8c4.4,3.5,8,7.3,11.1,11
		C128.2,15.2,112.4,3.9,96,0.1c-2.1-0.5-4.3,0.3-5.7,2c-1.4,1.7-1.6,4-0.7,6l4,8.7c-5.5-1.6-12.1-3-18.5-3c-5,0-9.5,0.9-13.3,2.5
		c-13.2,5.9-21.6,15.3-23.6,26.1C20.3,58.9,9.1,82.7,9.1,109.1c0,50.2,40.7,90.9,90.9,90.9c50.2,0,90.9-40.7,90.9-90.9
		C190.9,83.7,180.5,60.7,163.8,44.2 M100,184.8c-41.8,0-75.8-34-75.8-75.8c0-18.6,6.8-35.7,18-48.9c4.9,5.7,13.7,8.8,25.6,8.8
		c3.5,0,6-0.3,6.1-0.3c2.7-0.3,4.9-2.6,5-5.3c0.1-2.8-1.7-5.2-4.4-5.8c0,0-0.8-0.3-1.3-1.1c-0.6-1.1-0.5-3.2,0.4-5.7
		c0.9-2.7,3.8-11,22.8-11c20.6,0,46.7,9.8,53.2,12.3c15.9,13.9,26.1,34.3,26.1,57.1C175.8,150.8,141.8,184.8,100,184.8"/>
</g>
</svg>
