<?xml version="1.0" encoding="utf-8"?>
<!-- Generator: Adobe Illustrator 19.1.0, SVG Export Plug-In . SVG Version: 6.00 Build 0)  -->
<svg version="1.1" id="Warstwa_1" xmlns="http://www.w3.org/2000/svg" xmlns:xlink="http://www.w3.org/1999/xlink" x="0px" y="0px"
	 viewBox="0 0 200 200" style="enable-background:new 0 0 200 200;" xml:space="preserve">
<style type="text/css">
	.st0{fill:#01588C;}
</style>
<g>
	<path class="st0" d="M100,16.7c45.9,0,83.3,37.4,83.3,83.3c0,46-37.4,83.3-83.3,83.3S16.7,146,16.7,100
		C16.7,54.1,54.1,16.7,100,16.7 M100,0C44.8,0,0,44.8,0,100c0,55.2,44.8,100,100,100c55.2,0,100-44.8,100-100
		C200,44.8,155.2,0,100,0"/>
	<path class="st0" d="M58.3,137.5c6.7,17.1,22.2,29.2,41.7,29.2s35-12.1,41.7-29.2H58.3z"/>
	<path class="st0" d="M79.2,81.3c0,8.1-6.5,14.6-14.6,14.6S50,89.3,50,81.3s6.5-14.6,14.6-14.6S79.2,73.2,79.2,81.3"/>
	<path class="st0" d="M150,81.3c0,8.1-6.5,14.6-14.6,14.6s-14.6-6.5-14.6-14.6s6.5-14.6,14.6-14.6S150,73.2,150,81.3"/>
</g>
</svg>
