<?xml version="1.0" encoding="utf-8"?>
<!-- Generator: Adobe Illustrator 19.1.0, SVG Export Plug-In . SVG Version: 6.00 Build 0)  -->
<svg version="1.1" id="Warstwa_1" xmlns="http://www.w3.org/2000/svg" xmlns:xlink="http://www.w3.org/1999/xlink" x="0px" y="0px"
	 viewBox="0 0 200 200" style="enable-background:new 0 0 200 200;" xml:space="preserve">
<style type="text/css">
	.st0{fill:#01588C;}
</style>
<g>
	<path class="st0" d="M58.3,137.5c6.7,17.1,22.2,29.2,41.7,29.2s35-12.1,41.7-29.2H58.3z"/>
	<path class="st0" d="M79.2,81.2c0,8.1-6.5,14.6-14.6,14.6S50,89.3,50,81.2c0-8.1,6.5-14.6,14.6-14.6S79.2,73.2,79.2,81.2"/>
	<path class="st0" d="M150,81.2c0,8.1-6.5,14.6-14.6,14.6c-8.1,0-14.6-6.5-14.6-14.6c0-8.1,6.5-14.6,14.6-14.6
		C143.5,66.7,150,73.2,150,81.2"/>
	<path class="st0" d="M100,0C44.8,0,0,44.8,0,100c0,55.2,44.8,100,100,100c55.2,0,100-44.8,100-100C200,44.8,155.2,0,100,0
		 M100,183.3c-46,0-83.3-37.4-83.3-83.3c0-24.4,10.6-46.4,27.4-61.6c3.5,6.7,11.7,15.3,30.6,23.8c0.5,0.2,1.1,0.4,1.7,0.4
		c0,0,0.1,0,0.1,0c2.3,0,4.2-1.9,4.2-4.2c0-1.1-0.4-2.1-1.1-2.8c-0.2-0.3-0.5-0.8-0.8-1.5c5.4,4.8,13.3,8.4,24.3,8.4h0
		c2.4,0.2,4.2-1.8,4.2-4.2c0-1.4-0.7-2.6-1.7-3.4c-0.6-0.6-1.2-1.3-1.9-2c8,4.8,17.8,9.6,26,9.6h0c2.2,0.2,4.2-1.8,4.2-4.2
		c0-1.4-0.7-2.6-1.7-3.4c-1.9-1.9-3.7-3.9-5.4-5.8c10,6.5,22.3,13.3,29.5,13.3c1.3,0,2.5-0.6,3.3-1.6c0.8-1,1.1-2.3,0.8-3.6
		c-1-4.1-2-11-1.3-16.1c15,15.1,24.3,35.9,24.3,58.8C183.3,146,145.9,183.3,100,183.3"/>
</g>
</svg>
