<?xml version="1.0" encoding="utf-8"?>
<!-- Generator: Adobe Illustrator 19.1.0, SVG Export Plug-In . SVG Version: 6.00 Build 0)  -->
<svg version="1.1" id="Warstwa_1" xmlns="http://www.w3.org/2000/svg" xmlns:xlink="http://www.w3.org/1999/xlink" x="0px" y="0px"
	 viewBox="0 0 200 200" style="enable-background:new 0 0 200 200;" xml:space="preserve">
<style type="text/css">
	.st0{fill:#01588C;}
</style>
<g>
	<path class="st0" d="M58.3,137.5c6.7,17.1,22.2,29.2,41.7,29.2c19.4,0,35-12.1,41.7-29.2H58.3z"/>
	<path class="st0" d="M79.2,81.3c0,8-6.5,14.6-14.6,14.6S50,89.3,50,81.3c0-8.1,6.5-14.6,14.6-14.6S79.2,73.2,79.2,81.3"/>
	<path class="st0" d="M150,81.3c0,8-6.5,14.6-14.6,14.6c-8.1,0-14.6-6.5-14.6-14.6c0-8.1,6.5-14.6,14.6-14.6
		C143.5,66.7,150,73.2,150,81.3"/>
	<path class="st0" d="M200,100C200,44.8,155.2,0,100,0S0,44.8,0,100c0,29.6,12.9,56.2,33.4,74.5c-0.5,1.9-0.8,2.9-0.8,3
		c-0.6,1.9-0.1,3.9,1.3,5.3l12.5,12.5c1,1,2.3,1.5,3.7,1.5h0c2.8-0.2,5.2-2.3,5.2-5.2c0-0.5-0.1-1-0.2-1.4c0-0.3-0.1-0.6-0.1-0.9
		c13.5,6.8,28.8,10.7,45,10.7s31.5-3.9,45-10.7c-0.1,0.6-0.1,1.3-0.2,1.8c-0.2,2.2,1,4.3,2.9,5.2c0.7,0.3,1.5,0.5,2.2,0.5
		c1.3,0,2.7-0.5,3.7-1.5l12.5-12.5c1.4-1.4,1.9-3.4,1.3-5.3c0,0-0.3-1.1-0.8-3C187.1,156.2,200,129.6,200,100 M163.5,145.8
		c0-18.5-7-28.4-21.2-30.2c-2.7-0.3-6.9-0.5-13-0.5c-9.9,0-21.1,0.4-21.2,0.5c-2.8,0.1-5,2.4-5,5.2v8.3c0,2.9,2.3,5.2,5.2,5.2
		c4.3,0,8.1,0,11.5,0c2.7,0,5.1,0,7.3,0c15.8,0,16.2,0.8,18,5.2c1.8,4.2,1.8,16.8,1.2,29.7c-13.3,8.9-29.2,14.2-46.4,14.2
		s-33.1-5.2-46.4-14.2c-0.6-12.9-0.5-25.4,1.2-29.7c1.8-4.4,2.1-5.2,18-5.2c2.2,0,4.6,0,7.3,0c3.4,0,7.2,0,11.5,0
		c2.9,0,5.2-2.3,5.2-5.2v-8.3c0-2.8-2.2-5.1-5-5.2c-0.1,0-11.4-0.5-21.2-0.5c-6,0-10.3,0.2-13,0.5c-14.3,1.8-21.2,11.6-21.2,30.2
		c0,2.7-0.1,5.3-0.2,7.7C24,139.1,16.6,120.4,16.6,100c0-32.2,18.4-60.2,45.3-74.1c0.4,0,0.7,0.1,1.1,0.1c0,0,2.9-0.3,7.3-0.3
		c11.7,0,33.3,2,46.7,15.5c1.7,1.6,4.2,3.8,7.4,3.8c2,0,3.9-0.9,5.2-2.5c1-1.2,1.6-2.9,1.8-5.1c6.1,5.5,12.1,11.6,13.8,14.9
		c1.1,2.1,3.2,3.3,5.3,3.3c2.5,0,5.2-0.2,9.9-12.7c14.1,14.9,22.8,35,22.8,57.1c0,20.4-7.4,39.1-19.6,53.6
		C163.6,151.1,163.5,148.6,163.5,145.8"/>
</g>
</svg>
