<?xml version="1.0" standalone="no"?>
<!DOCTYPE svg PUBLIC "-//W3C//DTD SVG 20010904//EN"
 "http://www.w3.org/TR/2001/REC-SVG-20010904/DTD/svg10.dtd">
<svg version="1.0" xmlns="http://www.w3.org/2000/svg"
 width="260.000000pt" height="260.000000pt" viewBox="0 0 260.000000 260.000000"
 preserveAspectRatio="xMidYMid meet">
<metadata>
Created by potrace 1.11, written by Peter Selinger 2001-2013
</metadata>
<g transform="translate(0.000000,260.000000) scale(0.100000,-0.100000)"
fill="#000000" stroke="none">
<path d="M1195 2298 c-44 -10 -89 -20 -100 -22 -11 -2 -31 -7 -45 -10 -14 -3
-115 -26 -225 -51 -284 -64 -278 -62 -313 -103 -17 -21 -95 -113 -174 -205
-140 -164 -147 -174 -232 -345 -87 -174 -95 -197 -83 -257 3 -16 24 -145 47
-285 23 -140 47 -284 55 -320 l13 -65 -33 -30 c-19 -16 -47 -39 -64 -50 l-30
-21 30 -47 c16 -26 33 -47 38 -47 9 0 210 96 218 104 6 6 15 60 33 196 11 91
18 137 25 185 2 17 7 50 10 75 3 25 12 92 20 150 7 57 12 107 9 111 -2 4 55
-10 126 -31 71 -21 132 -36 135 -34 3 2 1 -1 -3 -6 -5 -6 -1 -43 8 -83 18 -74
51 -226 94 -427 13 -63 37 -172 52 -242 l28 -128 160 0 161 0 16 53 c9 28 37
117 62 197 25 80 49 157 53 172 5 22 12 28 33 29 29 0 316 0 344 0 10 -1 21
-11 26 -24 5 -12 27 -62 50 -110 23 -49 41 -90 41 -91 0 -2 20 -46 43 -97 24
-52 47 -102 50 -111 6 -16 23 -18 161 -18 153 0 156 0 160 23 5 20 29 154 40
222 3 17 16 93 30 170 13 77 27 156 30 175 6 33 9 49 21 110 3 14 8 45 12 70
9 67 15 74 44 52 36 -27 211 -134 214 -130 1 2 -24 59 -57 128 -33 69 -82 170
-108 225 -26 55 -87 181 -135 280 -47 99 -93 194 -101 211 -13 28 -33 37 -252
118 -130 49 -317 118 -414 154 l-177 66 -27 63 c-15 35 -30 65 -33 67 -3 1
-42 -6 -86 -16z"/>
</g>
</svg>
